<svg width="1044" height="1717" viewBox="0 0 1044 1717" fill="none" xmlns="http://www.w3.org/2000/svg">
<g filter="url(#filter0_f_2361_27297)">
<path fill-rule="evenodd" clip-rule="evenodd" d="M928.415 1172.88C827.94 1219.84 715.148 1294.98 616.917 1243.36C521.34 1193.13 538.59 1052.92 503.45 949.544C476.522 870.325 428.795 800.292 437.999 717.001C449.638 611.673 463.75 478.065 560.043 437.423C655.969 396.935 740.518 515.62 839.528 547.528C940.109 579.943 1065.48 541.916 1134.91 622.688C1214.26 715.002 1245.43 855.202 1202.44 969.741C1160.55 1081.36 1035.2 1122.99 928.415 1172.88Z" fill="#693CF7"/>
</g>
<g filter="url(#filter1_f_2361_27297)">
<ellipse cx="286.497" cy="256.47" rx="286.497" ry="256.47" transform="matrix(0.726265 0.687414 0.675411 -0.737441 594.615 711.082)" fill="#8648F9"/>
</g>
<mask id="mask0_2361_27297" style="mask-type:alpha" maskUnits="userSpaceOnUse" x="484" y="411" width="1065" height="1113">
<path opacity="0.64" d="M1238.65 411.726L1548.91 973.613L1154.07 1405.92L993.31 1523.34L607.446 1451.95L484.919 1197.15L892.916 751.685L1238.65 411.726Z" fill="url(#paint0_linear_2361_27297)"/>
</mask>
<g mask="url(#mask0_2361_27297)">
</g>
<mask id="mask1_2361_27297" style="mask-type:alpha" maskUnits="userSpaceOnUse" x="435" y="458" width="1188" height="1228">
<path opacity="0.64" d="M435.146 1230.92C641.805 1425.89 905.47 1674.56 915.003 1685.1L1622.55 912.574L1142.69 458.387L435.146 1230.92Z" fill="url(#paint1_linear_2361_27297)"/>
</mask>
<g mask="url(#mask1_2361_27297)">
<path d="M1146.77 1298.36C1226.57 1211.23 1219.76 1068.02 1153.51 1005.31C1087.25 942.6 968.002 895.575 882.381 989.059C839.952 1035.39 744.146 1049.71 726.73 1135.98C709 1223.8 811.032 1296.59 844.454 1328.22C910.708 1390.93 1066.96 1385.49 1146.77 1298.36Z" fill="#6038F3"/>
<g filter="url(#filter2_f_2361_27297)">
<path d="M1140.14 1294.03C1225.72 1200.58 1223.45 1073.58 1166.5 1019.68C1109.55 965.775 1002.52 930.293 916.936 1023.74C874.524 1070.05 783.477 1088.84 761.448 1170.7C739.023 1254.03 828.36 1314.81 857.088 1342C914.038 1395.9 1054.55 1387.48 1140.14 1294.03Z" fill="#6038F3"/>
</g>
<g filter="url(#filter3_f_2361_27297)">
<path d="M1142.73 1291.2C1238.65 1186.46 1228.99 1037.38 1158.77 970.925C1088.56 904.469 960.229 856.772 864.304 961.507C816.768 1013.41 703.749 1024.08 682.237 1118.84C660.339 1215.3 775.112 1297.28 810.53 1330.81C880.743 1397.27 1046.8 1395.93 1142.73 1291.2Z" fill="#6038F3"/>
</g>
<g filter="url(#filter4_f_2361_27297)">
<path d="M1145.48 1271.24C1246.69 1125.63 1253.73 932.325 1171.55 854.547C1089.38 776.768 940.433 758.316 825.39 883.925C768.381 946.17 605.533 941.417 578.722 1054.1C551.43 1168.81 679.184 1257.77 720.637 1297.01C802.811 1374.79 1028.24 1439.92 1145.48 1271.24Z" fill="#6038F3"/>
</g>
<g filter="url(#filter5_f_2361_27297)">
<path d="M1152.13 1196.2C1276 1060.95 1276.77 844.305 1196.42 768.261C1116.08 692.216 964.502 680.675 840.63 815.923C779.246 882.945 674.053 935.3 641.132 1052.8C607.62 1172.4 734.078 1257.69 774.607 1296.05C854.95 1372.09 1028.26 1331.44 1152.13 1196.2Z" fill="#6038F3"/>
</g>
<g filter="url(#filter6_f_2361_27297)">
<path d="M1168.27 1113.2C1296.28 973.437 1298.19 750.619 1216.02 672.84C1133.84 595.061 978.123 584.007 850.114 723.773C786.679 793.034 678.296 847.446 643.852 968.466C608.788 1091.66 738.309 1178.69 779.762 1217.93C861.937 1295.71 1040.26 1252.97 1168.27 1113.2Z" fill="#6038F3"/>
</g>
<g filter="url(#filter7_f_2361_27297)">
<path d="M1085.06 1230.69C1197.07 1108.4 1185.2 900.621 1103.03 822.843C1020.86 745.064 873.495 724.881 761.487 847.176C705.982 907.78 616.729 960.674 591.705 1071.41C566.231 1184.13 693.571 1273.54 735.024 1312.78C817.199 1390.56 973.049 1352.99 1085.06 1230.69Z" fill="#6038F3"/>
</g>
</g>
<g style="mix-blend-mode:screen" opacity="0.5" filter="url(#filter8_f_2361_27297)">
<path d="M991.171 916.767C1104.23 896.889 1217.08 770.276 1207.13 711.815C1197.18 653.353 1258.55 505.493 998.87 671.423C885.808 691.301 732.502 601.439 797.696 783.798C807.641 842.26 914.585 757.191 991.171 916.767Z" fill="#8E58EF"/>
</g>
<g style="mix-blend-mode:screen" opacity="0.8" filter="url(#filter9_f_2361_27297)">
<path d="M1026.87 1265.79C1125.1 1158.54 1182.12 1124.23 1128.45 1073.43C1074.79 1022.64 1135.16 802.769 999.483 1169.41C901.253 1276.66 562.194 1095.1 763.764 1227.13C817.427 1277.92 830.944 1165.35 1026.87 1265.79Z" fill="#8E58EF"/>
</g>
<defs>
<filter id="filter0_f_2361_27297" x="176.125" y="168.387" width="1306.41" height="1353.09" filterUnits="userSpaceOnUse" color-interpolation-filters="sRGB">
<feFlood flood-opacity="0" result="BackgroundImageFix"/>
<feBlend mode="normal" in="SourceGraphic" in2="BackgroundImageFix" result="shape"/>
<feGaussianBlur stdDeviation="130.357" result="effect1_foregroundBlur_2361_27297"/>
</filter>
<filter id="filter1_f_2361_27297" x="552.209" y="292.888" width="847.402" height="852.01" filterUnits="userSpaceOnUse" color-interpolation-filters="sRGB">
<feFlood flood-opacity="0" result="BackgroundImageFix"/>
<feBlend mode="normal" in="SourceGraphic" in2="BackgroundImageFix" result="shape"/>
<feGaussianBlur stdDeviation="76.477" result="effect1_foregroundBlur_2361_27297"/>
</filter>
<filter id="filter2_f_2361_27297" x="753.178" y="961.143" width="458.672" height="418.87" filterUnits="userSpaceOnUse" color-interpolation-filters="sRGB">
<feFlood flood-opacity="0" result="BackgroundImageFix"/>
<feBlend mode="normal" in="SourceGraphic" in2="BackgroundImageFix" result="shape"/>
<feGaussianBlur stdDeviation="2.3487" result="effect1_foregroundBlur_2361_27297"/>
</filter>
<filter id="filter3_f_2361_27297" x="663.042" y="883.863" width="566.475" height="508.705" filterUnits="userSpaceOnUse" color-interpolation-filters="sRGB">
<feFlood flood-opacity="0" result="BackgroundImageFix"/>
<feBlend mode="normal" in="SourceGraphic" in2="BackgroundImageFix" result="shape"/>
<feGaussianBlur stdDeviation="8.22046" result="effect1_foregroundBlur_2361_27297"/>
</filter>
<filter id="filter4_f_2361_27297" x="551.448" y="769.423" width="699.888" height="631.188" filterUnits="userSpaceOnUse" color-interpolation-filters="sRGB">
<feFlood flood-opacity="0" result="BackgroundImageFix"/>
<feBlend mode="normal" in="SourceGraphic" in2="BackgroundImageFix" result="shape"/>
<feGaussianBlur stdDeviation="11.7435" result="effect1_foregroundBlur_2361_27297"/>
</filter>
<filter id="filter5_f_2361_27297" x="572.128" y="648.857" width="743.082" height="748.575" filterUnits="userSpaceOnUse" color-interpolation-filters="sRGB">
<feFlood flood-opacity="0" result="BackgroundImageFix"/>
<feBlend mode="normal" in="SourceGraphic" in2="BackgroundImageFix" result="shape"/>
<feGaussianBlur stdDeviation="31.7075" result="effect1_foregroundBlur_2361_27297"/>
</filter>
<filter id="filter6_f_2361_27297" x="480.535" y="458.67" width="948.9" height="955.098" filterUnits="userSpaceOnUse" color-interpolation-filters="sRGB">
<feFlood flood-opacity="0" result="BackgroundImageFix"/>
<feBlend mode="normal" in="SourceGraphic" in2="BackgroundImageFix" result="shape"/>
<feGaussianBlur stdDeviation="78.6815" result="effect1_foregroundBlur_2361_27297"/>
</filter>
<filter id="filter7_f_2361_27297" x="515.556" y="687.164" width="724.134" height="739.021" filterUnits="userSpaceOnUse" color-interpolation-filters="sRGB">
<feFlood flood-opacity="0" result="BackgroundImageFix"/>
<feBlend mode="normal" in="SourceGraphic" in2="BackgroundImageFix" result="shape"/>
<feGaussianBlur stdDeviation="36.4049" result="effect1_foregroundBlur_2361_27297"/>
</filter>
<filter id="filter8_f_2361_27297" x="647.379" y="460.417" width="695.094" height="591.08" filterUnits="userSpaceOnUse" color-interpolation-filters="sRGB">
<feFlood flood-opacity="0" result="BackgroundImageFix"/>
<feBlend mode="normal" in="SourceGraphic" in2="BackgroundImageFix" result="shape"/>
<feGaussianBlur stdDeviation="67.3649" result="effect1_foregroundBlur_2361_27297"/>
</filter>
<filter id="filter9_f_2361_27297" x="566.172" y="826.966" width="717.649" height="573.557" filterUnits="userSpaceOnUse" color-interpolation-filters="sRGB">
<feFlood flood-opacity="0" result="BackgroundImageFix"/>
<feBlend mode="normal" in="SourceGraphic" in2="BackgroundImageFix" result="shape"/>
<feGaussianBlur stdDeviation="67.3649" result="effect1_foregroundBlur_2361_27297"/>
</filter>
<linearGradient id="paint0_linear_2361_27297" x1="970.659" y1="1135.28" x2="643.598" y2="1178.75" gradientUnits="userSpaceOnUse">
<stop stop-color="#C4C4C4"/>
<stop offset="1" stop-color="#C4C4C4" stop-opacity="0"/>
</linearGradient>
<linearGradient id="paint1_linear_2361_27297" x1="1134.81" y1="1290.16" x2="799.629" y2="962.962" gradientUnits="userSpaceOnUse">
<stop stop-color="#C4C4C4"/>
<stop offset="1" stop-color="#C4C4C4" stop-opacity="0"/>
</linearGradient>
</defs>
</svg>
